Coordinates
version=1
nRows=17
nColumns=40
inDegrees=yes

Units are S.I. units (second, meters, Newtons, ...)
Angles are in degrees.

endheader
time	pelvis_tilt	pelvis_list	pelvis_rotation	pelvis_tx	pelvis_ty	pelvis_tz	hip_flexion_r	hip_adduction_r	hip_rotation_r	knee_angle_r	knee_angle_r_beta	ankle_angle_r	subtalar_angle_r	mtp_angle_r	hip_flexion_l	hip_adduction_l	hip_rotation_l	knee_angle_l	knee_angle_l_beta	ankle_angle_l	subtalar_angle_l	mtp_angle_l	lumbar_extension	lumbar_bending	lumbar_rotation	arm_flex_r	arm_add_r	arm_rot_r	elbow_flex_r	pro_sup_r	wrist_flex_r	wrist_dev_r	arm_flex_l	arm_add_l	arm_rot_l	elbow_flex_l	pro_sup_l	wrist_flex_l	wrist_dev_l
     10.38250000	     -4.17878448	     -5.78862636	     -9.05787714	      1.04365492	      0.92588640	      0.55798828	     17.19448659	      5.63588792	     -8.32490849	     20.25596414	     20.25596414	      8.32896002	     -1.34813727	     -4.59098417	      3.09762463	    -13.13868176	    -12.42282697	     37.35744429	     37.35744429	     12.96524358	    -17.99161485	     -1.10793832	     -9.10925392	      8.75695834	      1.57846363	     -6.87489034	    -15.15339866	    -20.54699418	     32.39361333	     46.29891259	      0.00000000	      0.00000000	     32.25486014	    -18.66866788	    -11.52461129	     83.39182932	     48.31095752	      0.00000000	      0.00000000
     10.40200000	     -4.02447412	     -5.97776329	     -8.68500223	      1.04437128	      0.92667193	      0.56226256	     16.27468968	      6.06715918	     -8.45880282	     19.77608142	     19.77608142	      8.60142544	     -1.49778922	     -4.46090769	      4.76365122	    -14.12177032	    -11.53750510	     41.10538538	     41.10538538	     11.12589914	    -18.60821445	     -1.14123020	     -9.18403775	      8.76160528	      1.60871226	     -5.62376114	    -15.51900502	    -20.49539170	     33.08265482	     46.27702370	      0.00000000	      0.00000000	     31.62666875	    -18.06728829	    -11.50152528	     82.81448609	     48.29357301	      0.00000000	      0.00000000
     10.42150000	     -3.88648603	     -6.19517105	     -8.28294083	      1.04483634	      0.92725139	      0.56636466	     15.41807016	      6.52046587	     -8.61328632	     19.35065942	     19.35065942	      8.86581823	     -1.67416994	     -4.34817334	      6.60899750	    -15.10401832	    -10.50960864	     44.93975220	     44.93975220	      9.37704207	    -18.95088915	     -0.69381892	     -9.24459401	      8.77875977	      1.62765781	     -4.30880744	    -15.88487182	    -20.40591620	     33.84171011	     46.25030109	      0.00000000	      0.00000000	     30.80668490	    -17.39242567	    -11.50257257	     82.03122245	     48.27256451	      0.00000000	      0.00000000
     10.44100000	     -3.81199582	     -6.26972354	     -7.87990797	      1.04491588	      0.92760576	      0.56999143	     14.79169169	      6.85639030	     -8.44436631	     19.12023550	     19.12023550	      9.20849139	     -2.39873132	     -3.92362776	      8.92484860	    -15.59208522	     -8.83659987	     49.18868944	     49.18868944	      9.68614924	    -19.06749709	      5.77347072	     -9.17890888	      8.75545123	      1.36034253	     -3.18805633	    -16.32391189	    -19.32121908	     35.70117274	     46.11281300	      0.00000000	      0.00000000	     29.97453212	    -16.43283844	    -12.95420927	     79.83956060	     48.31222812	      0.00000000	      0.00000000
     10.46050000	     -3.64875451	     -6.48331464	     -7.50410398	      1.04492177	      0.92781348	      0.57356072	     14.07342023	      7.22575914	     -8.78773124	     18.94267600	     18.94267600	      9.52188003	     -2.29668346	     -3.93994780	     10.84453648	    -16.35174309	     -7.67592998	     52.68473481	     52.68473481	      8.13441929	    -19.24607903	      6.56181696	     -9.31170709	      8.76019707	      1.59159434	     -1.78213855	    -16.69938231	    -19.17995274	     36.37237258	     46.08812799	      0.00000000	      0.00000000	     28.79629945	    -15.55999158	    -12.57414871	     79.10622631	     48.26408295	      0.00000000	      0.00000000
     10.48000000	     -3.57747095	     -6.48413799	     -7.12549769	      1.04453700	      0.92771296	      0.57655035	     13.70038731	      7.32106938	     -9.06008993	     19.14106508	     19.14106508	     10.14174991	     -2.24990368	     -3.43477283	     13.23226082	    -16.46795513	     -5.95946141	     56.45607183	     56.45607183	      9.37272959	    -19.29966781	     14.75025779	     -9.25983646	      8.64302586	      1.54721918	     -0.52268424	    -17.22328513	    -17.66022647	     37.88017961	     45.94994563	      0.00000000	      0.00000000	     27.77386399	    -14.63095084	    -12.99925244	     76.60644324	     48.22597504	      0.00000000	      0.00000000
     10.49950000	     -3.44194868	     -6.58122853	     -6.75716853	      1.04403730	      0.92741792	      0.57954699	     13.32043676	      7.52481048	     -9.30470318	     19.44373953	     19.44373953	     10.62181087	     -2.44026922	     -3.36408013	     15.14610527	    -16.88322576	     -4.87621173	     59.26930922	     59.26930922	      8.64065085	    -19.40763172	     15.98316942	     -9.33883997	      8.58378775	      1.34236106	      1.28691175	    -17.39612826	    -17.34338929	     38.96563967	     45.90276387	      0.00000000	      0.00000000	     26.22420680	    -14.09576776	    -12.87803336	     74.69767784	     48.16926733	      0.00000000	      0.00000000
     10.51900000	     -3.21529616	     -6.69806343	     -6.42020071	      1.04333441	      0.92697589	      0.58223357	     12.98784232	      7.69321184	     -9.56288471	     20.02224086	     20.02224086	     11.39422543	     -2.50506809	     -2.73989800	     16.98284011	    -17.18703016	     -3.80840426	     61.83597982	     61.83597982	      9.19005741	    -19.46514540	     19.46997321	     -9.56004277	      8.57430387	      1.54082466	      2.84604898	    -17.81094288	    -16.30615918	     40.08915866	     45.81769983	      0.00000000	      0.00000000	     25.14280776	    -12.98401307	    -13.07582543	     71.87263930	     48.11406099	      0.00000000	      0.00000000
     10.53850000	     -3.00742798	     -6.77307120	     -6.06527940	      1.04247161	      0.92627657	      0.58468251	     12.78024509	      7.80878105	     -9.77835563	     20.75316919	     20.75316919	     12.12706375	     -2.76746319	     -2.29842067	     18.67329686	    -17.50114180	     -3.03978578	     63.76845519	     63.76845519	      9.57662376	    -19.52315674	     20.91026000	     -9.74722293	      8.50930907	      1.48704281	      4.71537007	    -17.96207039	    -15.64184738	     41.22886853	     45.75595304	      0.00000000	      0.00000000	     23.71256300	    -12.21837145	    -12.93045333	     69.03770032	     48.03658030	      0.00000000	      0.00000000
     10.55800000	     -2.59458598	     -6.86445098	     -5.75454651	      1.04165816	      0.92562278	      0.58693397	     12.30817707	      7.93233822	     -9.91965492	     21.39899138	     21.39899138	     12.72456106	     -3.08840195	     -2.50342403	     19.91108287	    -17.89170185	     -2.65615038	     65.04753602	     65.04753602	      9.94836462	    -19.56895608	     20.84577391	    -10.26339992	      8.43728409	      1.85719940	      6.58477669	    -18.08794957	    -15.58887028	     42.05817080	     45.73390527	      0.00000000	      0.00000000	     21.85261686	    -11.11295125	    -12.49864761	     67.72665858	     47.96903038	      0.00000000	      0.00000000
     10.57750000	     -2.47691114	     -6.86243462	     -5.35112850	      1.04034572	      0.92412850	      0.58881421	     12.52711500	      7.95751804	     -9.93480148	     22.65876022	     22.65876022	     13.71525387	     -3.85818427	     -1.79695862	     21.67673712	    -18.07941730	     -2.08441880	     66.14393287	     66.14393287	     11.43987855	    -19.59829020	     22.97773898	    -10.30242390	      8.36319736	      1.32257696	      8.92025036	    -17.89305871	    -14.64662137	     43.28785139	     45.65952422	      0.00000000	      0.00000000	     20.77603292	    -10.80089521	    -12.30974717	     62.45048519	     47.85774255	      0.00000000	      0.00000000
     10.59700000	     -2.26752076	     -6.80921962	     -4.95728818	      1.03904295	      0.92249539	      0.59045632	     12.65009702	      7.90975096	     -9.94306482	     23.90440503	     23.90440503	     14.51766118	     -4.67796303	     -1.76424066	     23.15433912	    -18.27577522	     -1.84128477	     66.57535940	     66.57535940	     12.59779666	    -19.62847689	     23.29352062	    -10.54061280	      8.18859213	      1.02920130	     11.15594141	    -17.55390227	    -14.32994296	     44.59315817	     45.61018217	      0.00000000	      0.00000000	     18.91417942	    -10.28703191	    -11.82998975	     59.55523177	     47.76020210	      0.00000000	      0.00000000
     10.61650000	     -1.97682007	     -6.74146883	     -4.50432036	      1.03767823	      0.92083516	      0.59175278	     12.69000249	      7.85854501	     -9.85471407	     25.13008233	     25.13008233	     15.30827466	     -5.69733159	     -1.66720575	     24.46520489	    -18.40123375	     -1.67324355	     66.46481132	     66.46481132	     13.93528444	    -19.64835712	     23.71305139	    -10.89984469	      8.03031270	      0.75274366	     13.44342910	    -17.15063291	    -13.91688743	     45.84946977	     45.55870823	      0.00000000	      0.00000000	     17.20630207	     -9.76233236	    -11.26122399	     56.25019456	     47.65162925	      0.00000000	      0.00000000
     10.63600000	     -1.68427222	     -6.64222049	     -4.00637417	      1.03627665	      0.91905030	      0.59272794	     12.71978338	      7.79456145	     -9.70832555	     26.32053510	     26.32053510	     16.12559527	     -6.85794021	     -1.49023017	     25.70541053	    -18.42769528	     -1.55082203	     65.86429330	     65.86429330	     15.25773809	    -19.66203336	     24.11886269	    -11.22830433	      7.83055615	      0.50595972	     15.71260348	    -16.72000126	    -13.38738950	     47.13071513	     45.50182908	      0.00000000	      0.00000000	     15.62843855	     -9.20656446	    -10.55872929	     52.52636735	     47.52761101	      0.00000000	      0.00000000
     10.65550000	     -1.40993544	     -6.51138790	     -3.43697395	      1.03483640	      0.91724075	      0.59327872	     12.73734466	      7.69445137	     -9.54937306	     27.43988304	     27.43988304	     16.91756490	     -8.07082054	     -1.26929690	     26.89209388	    -18.30585990	     -1.40298603	     64.77491261	     64.77491261	     16.38917004	    -19.67194713	     24.35392095	    -11.54778962	      7.60649463	      0.30179898	     17.89716674	    -16.29427904	    -12.79613674	     48.51370001	     45.43924451	      0.00000000	      0.00000000	     14.12798669	     -8.61588295	     -9.74670661	     48.62844968	     47.39169378	      0.00000000	      0.00000000
     10.67500000	     -1.16566319	     -6.37490727	     -2.80067704	      1.03339584	      0.91547410	      0.59355950	     12.72442594	      7.59590882	     -9.43602386	     28.42968627	     28.42968627	     17.66990098	     -9.26396357	     -0.99063043	     28.00385665	    -18.07735402	     -1.22512118	     63.22339788	     63.22339788	     17.24640047	    -19.66249905	     24.40861944	    -11.81549713	      7.41150062	      0.18796094	     19.99819353	    -15.93427409	    -12.13541651	     50.10285506	     45.36785558	      0.00000000	      0.00000000	     12.76184043	     -8.04223845	     -8.82189761	     44.54538536	     47.24268954	      0.00000000	      0.00000000
     10.69450000	     -0.91608007	     -6.13888380	     -2.12788101	      1.03187222	      0.91389981	      0.59345552	     12.66928518	      7.36740511	     -9.32567728	     29.35414707	     29.35414707	     18.34565041	    -10.36460717	     -0.89231593	     28.98199432	    -17.58208141	     -0.98670652	     61.25416728	     61.25416728	     17.77656644	    -19.65822069	     24.26660543	    -12.14557967	      7.07486567	      0.10747282	     22.07165967	    -15.48494483	    -11.67398522	     51.82992919	     45.29956218	      0.00000000	      0.00000000	     11.13554071	     -7.54520336	     -8.09994503	     41.36726428	     47.11913527	      0.00000000	      0.00000000
